
<svg version="1.0" xmlns="http://www.w3.org/2000/svg"
viewBox="0 0 512.000000 512.000000"
 preserveAspectRatio="xMidYMid meet">

<g transform="translate(0.000000,512.000000) scale(0.100000,-0.100000)">
<path d="M2440 4485 c-36 -8 -92 -28 -125 -44 -66 -33 -2095 -1608 -2128
-1652 -28 -38 -33 -108 -12 -153 29 -60 78 -91 144 -91 66 0 55 -6 291 179
l165 129 5 -889 c6 -972 2 -907 66 -1039 41 -85 158 -200 248 -243 132 -64 76
-62 1466 -62 1062 0 1276 3 1333 15 196 41 360 194 428 400 10 32 14 228 19
928 l5 889 188 -146 c111 -86 204 -150 227 -157 57 -17 105 -4 150 41 66 66
67 154 2 220 -42 43 -1953 1532 -2050 1597 -115 78 -285 109 -422 78z m223
-332 c19 -10 333 -250 696 -533 l661 -515 -2 -995 -3 -995 -28 -47 c-31 -53
-79 -94 -134 -114 -56 -20 -2530 -20 -2586 0 -55 20 -103 61 -134 114 l-28 47
-3 995 -2 995 661 515 c364 283 668 519 678 524 67 40 159 43 224 9z"/>
</g>
</svg>
