<svg version="1.0" xmlns="http://www.w3.org/2000/svg"
 width="512.000000pt" height="512.000000pt" viewBox="0 0 512.000000 512.000000"
 preserveAspectRatio="xMidYMid meet">

<g transform="translate(0.000000,512.000000) scale(0.100000,-0.100000)">
<path d="M2462 4430 c-131 -24 -240 -81 -336 -176 -100 -101 -153 -206 -176
-350 -27 -164 37 -429 140 -578 l31 -46 -28 -10 c-15 -6 -40 -15 -54 -21 -23
-9 -33 -6 -75 24 -80 57 -120 75 -373 169 -22 8 -22 10 -8 26 30 33 88 163
108 240 60 234 17 421 -132 571 -100 101 -225 151 -374 151 -238 0 -439 -154
-509 -389 -39 -133 -6 -349 78 -507 l45 -85 -27 -10 c-15 -6 -72 -28 -127 -48
-183 -69 -287 -137 -375 -241 -132 -160 -180 -318 -180 -597 l0 -123 38 -19
c67 -34 259 -90 409 -121 191 -38 405 -60 588 -60 l145 0 0 -70 c0 -62 2 -71
24 -85 63 -42 289 -112 497 -154 427 -88 984 -96 1424 -21 229 39 514 119 597
167 32 18 33 21 36 91 l3 72 145 0 c219 0 505 35 705 85 93 23 248 75 292 97
l37 18 0 128 c-1 160 -12 251 -45 349 -37 110 -97 207 -180 288 -102 100 -179
141 -457 244 l-27 10 34 57 c61 102 101 228 111 353 18 233 -124 456 -347 543
-68 26 -224 36 -300 18 -193 -44 -360 -212 -400 -400 -7 -31 -9 -98 -7 -159 6
-119 45 -256 99 -344 16 -26 30 -52 32 -58 1 -6 -54 -32 -123 -58 -144 -55
-196 -80 -263 -127 l-48 -35 -49 18 c-47 17 -62 34 -40 48 17 11 80 131 104
201 55 158 71 339 41 459 -53 209 -226 388 -435 449 -68 20 -199 28 -268 16z
m188 -80 c99 -16 222 -80 295 -154 104 -106 155 -232 155 -384 0 -176 -75
-393 -171 -491 -124 -129 -359 -180 -538 -118 -85 30 -168 83 -212 136 -74 88
-141 277 -155 436 -22 260 167 513 426 569 80 18 117 19 200 6z m-1277 -37
c160 -76 267 -240 267 -411 0 -75 -26 -194 -62 -279 -68 -164 -210 -257 -394
-256 -91 1 -165 23 -241 72 -94 60 -155 166 -188 322 -47 221 19 407 181 514
88 59 151 76 269 72 88 -2 108 -6 168 -34z m2759 -6 c183 -90 279 -277 250
-483 -13 -89 -50 -206 -85 -264 -105 -179 -349 -246 -553 -151 -86 40 -138 91
-179 175 -84 172 -100 378 -37 507 57 118 149 200 270 240 44 15 80 18 158 16
94 -2 106 -5 176 -40z m-3224 -942 c87 -57 238 -90 345 -74 87 12 119 23 192
63 l64 35 164 -63 c90 -35 183 -76 207 -91 l43 -27 -91 -38 c-200 -82 -347
-211 -446 -391 -66 -121 -106 -270 -106 -400 l0 -69 -144 0 c-300 0 -675 60
-896 143 l-65 24 1 144 c1 167 15 236 71 349 48 96 179 231 270 278 46 24 328
138 351 142 1 0 20 -11 40 -25z m2756 -4 c170 -97 362 -99 532 -6 l62 33 143
-54 c79 -31 169 -69 200 -85 114 -61 214 -165 273 -282 55 -110 69 -180 70
-347 l1 -145 -113 -38 c-229 -76 -569 -127 -847 -127 l-145 0 0 68 c0 219 -95
440 -259 602 -83 82 -175 142 -293 190 l-91 38 43 27 c31 19 334 146 369 154
2 1 27 -12 55 -28z m-1459 -151 c12 -19 140 -78 206 -95 78 -21 215 -23 289
-6 63 15 167 60 209 90 l28 20 183 -69 c100 -38 210 -85 244 -104 126 -71 247
-197 310 -325 65 -129 81 -209 91 -437 l6 -152 -88 -32 c-300 -109 -705 -170
-1125 -170 -305 0 -561 26 -823 85 -108 24 -347 97 -374 114 -11 7 -11 40 -3
192 6 101 18 211 27 244 51 194 196 382 371 481 55 31 403 171 431 173 6 1 15
-4 18 -9z"/>
<path d="M813 1472 c-11 -9 -40 -54 -62 -100 -26 -52 -50 -86 -64 -92 -12 -5
-57 -13 -100 -19 -88 -12 -120 -29 -137 -72 -22 -51 -6 -88 72 -166 l72 -72
-12 -78 c-22 -143 -12 -181 53 -209 40 -16 72 -8 160 40 35 20 71 36 80 36 10
0 51 -18 92 -41 85 -47 130 -53 170 -23 44 33 51 70 34 179 l-15 95 77 79 c86
88 95 116 57 178 -21 35 -52 47 -155 59 -33 3 -68 11 -77 16 -10 4 -33 42 -52
83 -44 95 -75 125 -130 125 -24 0 -50 -8 -63 -18z m127 -155 c25 -48 55 -93
66 -101 10 -8 55 -19 99 -26 92 -13 125 -24 125 -42 0 -6 -34 -47 -76 -90
l-77 -78 6 -63 c3 -34 9 -88 13 -119 6 -55 6 -58 -15 -58 -12 0 -55 18 -95 40
-96 53 -124 52 -229 -5 -108 -58 -115 -55 -99 57 21 144 22 141 -63 227 -41
43 -75 83 -75 89 0 18 35 29 125 42 43 6 89 17 102 25 12 8 39 50 59 92 20 43
41 84 47 91 20 26 43 5 87 -81z"/>
<path d="M4176 1465 c-15 -14 -42 -59 -61 -99 -19 -41 -42 -79 -52 -84 -10 -5
-45 -13 -78 -16 -103 -12 -134 -24 -155 -59 -38 -62 -29 -90 57 -178 l77 -79
-15 -95 c-17 -109 -10 -146 34 -179 40 -30 85 -24 170 23 41 23 82 41 92 41 9
0 45 -16 80 -36 88 -48 120 -56 160 -40 65 28 75 66 53 209 l-12 78 72 72 c78
78 94 115 72 166 -17 43 -49 60 -137 72 -114 15 -118 18 -163 111 -23 46 -51
91 -63 100 -34 27 -98 23 -131 -7z m134 -147 c25 -49 54 -94 65 -102 11 -8 56
-19 100 -26 92 -13 125 -24 125 -42 0 -6 -34 -46 -75 -89 -85 -86 -84 -83 -63
-227 16 -111 9 -115 -98 -57 -106 58 -130 58 -237 0 -108 -58 -115 -55 -99 57
21 144 22 141 -63 227 -41 43 -75 83 -75 89 0 18 33 29 124 42 44 7 88 17 99
24 10 6 37 47 59 91 22 44 45 86 51 93 21 26 43 5 87 -80z"/>
<path d="M2510 1383 c-30 -15 -46 -39 -105 -155 -39 -75 -75 -142 -80 -147 -6
-6 -76 -20 -155 -32 -79 -11 -157 -27 -172 -35 -50 -26 -73 -105 -47 -157 6
-12 61 -70 121 -128 85 -81 109 -110 105 -125 -3 -10 -16 -83 -29 -162 -21
-138 -22 -144 -5 -176 22 -39 64 -66 104 -66 15 0 92 33 171 72 l142 73 143
-73 c78 -39 155 -72 170 -72 60 0 117 58 117 117 0 15 -11 89 -24 163 -16 86
-21 141 -15 151 5 10 52 57 105 106 53 48 102 100 110 115 29 57 8 135 -44
162 -15 8 -92 24 -171 35 -79 12 -147 24 -152 27 -5 3 -41 68 -79 145 -40 79
-80 145 -93 154 -38 25 -79 27 -117 8z m65 -69 c9 -4 44 -66 78 -138 43 -88
74 -140 96 -158 18 -16 36 -28 41 -28 22 0 278 -40 293 -46 37 -14 17 -49 -89
-154 -58 -58 -112 -120 -120 -138 -13 -29 -12 -48 12 -187 23 -127 25 -157 14
-169 -7 -9 -19 -16 -27 -16 -7 0 -73 32 -147 70 -87 46 -144 70 -166 70 -22 0
-79 -24 -166 -70 -74 -38 -140 -70 -147 -70 -8 0 -20 7 -27 16 -11 12 -9 42
14 169 24 139 25 158 12 187 -8 18 -62 80 -120 138 -106 105 -126 140 -89 154
15 6 271 46 293 46 5 0 23 12 41 27 22 19 53 71 95 159 35 73 69 134 76 137 7
3 14 6 15 6 1 1 9 -2 18 -5z"/>
</g>
</svg>
