
<svg version="1.0" xmlns="http://www.w3.org/2000/svg"
viewBox="0 0 512.000000 512.000000"
 preserveAspectRatio="xMidYMid meet">

<g transform="translate(0.000000,512.000000) scale(0.100000,-0.100000)">
<path d="M3285 5107 c-27 -8 -75 -26 -105 -42 -30 -15 -564 -324 -1187 -686
l-1131 -659 -234 0 c-256 0 -298 -6 -393 -60 -109 -62 -202 -194 -225 -319
-13 -72 -14 -2874 0 -2955 30 -187 189 -346 376 -376 37 -6 824 -10 2064 -10
2202 0 2085 -3 2196 61 101 57 175 148 220 265 16 44 18 93 22 455 l4 406 34
17 c56 26 131 104 161 165 l28 56 0 435 0 435 -27 57 c-31 67 -97 137 -155
164 l-41 19 -4 405 c-5 430 -6 438 -57 539 -29 56 -125 150 -187 183 -27 15
-81 35 -119 45 l-69 18 -338 590 c-339 594 -386 665 -472 724 -97 67 -253 96
-361 68z m200 -243 c40 -19 108 -85 98 -95 -5 -4 -411 -241 -904 -528 l-895
-521 -224 0 c-136 0 -220 4 -214 9 21 21 1940 1132 1978 1146 47 17 111 13
161 -11z m278 -397 l56 -97 -22 -14 c-12 -8 -263 -154 -557 -325 l-534 -311
-225 0 c-123 0 -221 3 -217 7 9 9 1440 843 1442 840 1 -1 26 -46 57 -100z
m296 -518 c67 -116 121 -215 121 -220 0 -5 -216 -9 -502 -9 -276 0 -499 3
-495 6 10 11 740 434 748 434 4 0 62 -95 128 -211z m432 -471 c52 -15 117 -73
140 -122 17 -38 19 -73 19 -418 l0 -378 -372 0 c-211 0 -401 -5 -437 -11 -251
-40 -469 -230 -548 -476 -118 -371 93 -766 472 -882 78 -24 90 -24 483 -29
l402 -4 0 -377 c0 -376 0 -378 -23 -422 -31 -58 -93 -105 -159 -118 -38 -8
-639 -11 -2058 -9 -1934 3 -2006 4 -2040 22 -49 26 -88 64 -113 111 l-22 40 0
1455 c0 1409 1 1456 19 1493 25 51 71 96 121 118 38 18 125 19 2059 19 1504 0
2029 -3 2057 -12z m318 -1161 c19 -7 44 -25 55 -40 20 -28 21 -38 21 -411 0
-317 -3 -388 -15 -410 -29 -56 -29 -56 -529 -56 -510 0 -524 2 -630 69 -253
163 -291 510 -78 723 59 59 171 116 249 128 91 13 888 11 927 -3z"/>
<path d="M3855 2069 c-55 -29 -81 -55 -106 -106 -28 -58 -28 -146 -1 -199 42
-82 103 -123 193 -131 50 -5 67 -2 114 21 148 73 178 265 58 378 -63 60 -182
77 -258 37z"/>
</g>
</svg>
