
<svg version="1.0" xmlns="http://www.w3.org/2000/svg"
 viewBox="0 0 512.000000 512.000000"
 preserveAspectRatio="xMidYMid meet">

<g transform="translate(0.000000,512.000000) scale(0.100000,-0.100000)">
<path d="M1459 4417 c-593 -321 -1084 -589 -1093 -596 -15 -12 -16 -129 -16
-1261 0 -1175 1 -1248 18 -1262 35 -30 2172 -1178 2193 -1178 21 0 2157 1148
2192 1178 16 14 17 87 17 1262 0 1175 -1 1248 -17 1262 -38 33 -2172 1178
-2194 1178 -13 -1 -508 -263 -1100 -583z m1436 282 c185 -100 334 -183 332
-185 -2 -2 -458 -249 -1013 -549 -964 -522 -1010 -545 -1036 -533 -111 54
-637 345 -635 350 1 6 1991 1089 2014 1097 2 1 154 -81 338 -180z m767 -415
c70 -38 124 -72 120 -76 -13 -13 -2005 -1088 -2017 -1088 -10 0 -414 216 -427
228 -4 4 448 253 1005 554 l1012 547 90 -48 c50 -26 147 -79 217 -117z m592
-320 c179 -97 326 -179 326 -183 0 -11 -2011 -1092 -2025 -1089 -30 6 -663
353 -657 359 4 4 153 86 332 182 179 97 629 340 1000 541 371 201 680 366 687
366 6 0 158 -79 337 -176z m-3339 -523 l220 -119 5 -480 c5 -518 5 -512 59
-512 15 0 79 18 143 39 108 36 118 38 131 23 7 -10 67 -93 132 -185 65 -93
128 -173 141 -179 18 -8 29 -7 48 6 l26 16 2 450 3 449 337 -182 338 -182 0
-1152 c0 -634 -3 -1153 -7 -1153 -5 1 -460 245 -1013 544 l-1005 544 -3 1157
-2 1156 112 -60 c62 -33 212 -114 333 -180z m3728 -2072 c-10 -9 -1982 -1075
-2006 -1085 -16 -6 -17 68 -17 1147 l0 1154 1013 547 1012 547 3 -1152 c1
-633 -1 -1154 -5 -1158z m-3157 1764 c119 -64 218 -121 220 -127 2 -6 3 -175
2 -376 l-3 -365 -92 131 c-54 77 -101 134 -113 137 -12 3 -67 -10 -122 -29
-56 -19 -106 -34 -110 -34 -4 0 -8 176 -8 390 0 215 2 390 5 390 3 0 102 -53
221 -117z"/>
<path d="M593 1704 c-15 -23 -15 -29 -2 -51 17 -31 771 -442 810 -443 28 0 59
27 59 52 0 9 -8 25 -17 36 -26 30 -777 432 -807 432 -17 0 -32 -9 -43 -26z"/>
<path d="M595 1510 c-15 -16 -17 -26 -9 -48 7 -21 41 -44 159 -109 83 -45 160
-82 172 -82 30 -1 53 25 53 60 0 33 -13 43 -191 137 -124 67 -156 73 -184 42z"/>
</g>
</svg>
