
<svg version="1.0" xmlns="http://www.w3.org/2000/svg"
 viewBox="0 0 512.000000 512.000000"
 preserveAspectRatio="xMidYMid meet">

<g transform="translate(0.000000,512.000000) scale(0.100000,-0.100000)">
<path d="M1920 4916 c-333 -112 -620 -210 -637 -220 -72 -36 -67 17 -73 -955
l-5 -874 -545 -182 c-300 -100 -560 -189 -577 -199 -19 -9 -42 -34 -53 -56
-20 -38 -20 -57 -20 -975 0 -918 0 -937 20 -975 11 -22 34 -47 53 -56 50 -26
1249 -424 1277 -424 14 0 289 88 612 196 l588 196 588 -196 c323 -108 598
-196 612 -196 28 0 1227 398 1277 424 19 9 42 34 53 56 20 38 20 57 20 975 0
918 0 937 -20 975 -11 22 -34 47 -53 56 -17 10 -277 99 -577 199 l-545 182 -5
874 c-6 972 -1 919 -73 955 -58 31 -1251 424 -1282 423 -16 0 -302 -92 -635
-203z m997 -223 c194 -65 353 -120 353 -123 0 -3 -160 -58 -355 -123 l-355
-119 -355 119 c-195 65 -355 120 -355 123 0 5 685 238 705 239 5 1 168 -52
362 -116z m-942 -486 l430 -144 3 -747 c2 -709 1 -747 -15 -742 -10 3 -211 70
-448 149 l-430 144 -3 747 c-2 709 -1 747 15 742 10 -3 212 -70 448 -149z
m1633 -594 l-3 -746 -430 -144 c-236 -79 -438 -146 -448 -149 -16 -5 -17 33
-15 742 l3 747 440 148 c242 81 443 148 448 148 4 1 6 -335 5 -746z m-1891
-1130 c194 -65 353 -120 353 -123 0 -3 -160 -58 -355 -123 l-355 -119 -355
119 c-195 65 -355 120 -355 123 0 5 685 238 705 239 5 1 168 -52 362 -116z
m2400 0 c194 -65 353 -120 353 -123 0 -3 -160 -58 -355 -123 l-355 -119 -355
119 c-195 65 -355 120 -355 123 0 5 685 238 705 239 5 1 168 -52 362 -116z
m-3342 -486 l430 -144 3 -747 c2 -709 1 -747 -15 -742 -10 3 -211 70 -448 149
l-430 144 -3 747 c-2 709 -1 747 15 742 10 -3 212 -70 448 -149z m1633 -594
l-3 -746 -430 -144 c-236 -79 -438 -146 -448 -149 -16 -5 -17 33 -15 742 l3
747 440 148 c242 81 443 148 448 148 4 1 6 -335 5 -746z m767 594 l430 -144 3
-747 c2 -709 1 -747 -15 -742 -10 3 -211 70 -448 149 l-430 144 -3 747 c-2
709 -1 747 15 742 10 -3 212 -70 448 -149z m1633 -594 l-3 -746 -430 -144
c-236 -79 -438 -146 -448 -149 -16 -5 -17 33 -15 742 l3 747 440 148 c242 81
443 148 448 148 4 1 6 -335 5 -746z"/>
</g>
</svg>
