
<svg version="1.0" xmlns="http://www.w3.org/2000/svg"
 viewBox="0 0 512.000000 512.000000"
 preserveAspectRatio="xMidYMid meet">

<g transform="translate(0.000000,512.000000) scale(0.100000,-0.100000)">
<path d="M352 4833 c-18 -9 -43 -30 -55 -47 l-22 -31 0 -2150 c0 -2057 1
-2152 18 -2186 23 -47 79 -103 126 -126 34 -17 131 -18 2174 -21 1960 -2 2142
-1 2173 14 50 24 77 68 82 133 5 70 -22 115 -88 148 l-44 23 -2063 0 -2063 0
-2 2073 c-3 2070 -3 2072 -24 2107 -43 74 -134 102 -212 63z"/>
<path d="M1008 4258 c-21 -5 -58 -28 -82 -50 -82 -71 -76 50 -76 -1645 0
-1119 3 -1516 12 -1551 16 -64 86 -134 150 -150 30 -8 145 -12 323 -12 232 0
282 3 310 16 70 33 65 -87 65 1639 0 1113 -3 1569 -11 1600 -7 27 -28 63 -51
90 -60 68 -95 75 -372 74 -127 -1 -248 -6 -268 -11z"/>
<path d="M3120 3824 c-45 -20 -87 -59 -111 -106 -18 -36 -19 -78 -19 -1368 0
-1178 2 -1335 15 -1368 20 -47 50 -78 100 -105 38 -21 55 -22 330 -25 325 -4
354 0 385 51 20 31 20 62 20 1391 0 1046 -3 1368 -12 1400 -16 53 -81 118
-134 134 -64 19 -528 16 -574 -4z"/>
<path d="M1929 3172 c-39 -20 -62 -41 -84 -77 l-30 -48 -3 -1049 c-2 -944 -1
-1052 14 -1083 29 -61 49 -65 359 -65 327 0 350 4 416 70 37 37 49 58 59 101
8 40 10 315 8 1040 l-3 986 -30 48 c-22 36 -45 57 -84 77 l-53 28 -258 0 -258
0 -53 -28z"/>
<path d="M4059 2747 c-24 -13 -57 -43 -74 -66 l-30 -43 -3 -855 c-3 -952 -7
-889 65 -919 29 -13 87 -15 333 -12 l297 3 48 30 c36 22 57 45 77 84 l28 53 0
789 c0 863 2 829 -58 892 -61 65 -74 67 -370 67 -262 0 -270 -1 -313 -23z"/>
</g>
</svg>
