<?xml version="1.0" standalone="no"?>
<!DOCTYPE svg PUBLIC "-//W3C//DTD SVG 20010904//EN"
 "http://www.w3.org/TR/2001/REC-SVG-20010904/DTD/svg10.dtd">
<svg version="1.0" xmlns="http://www.w3.org/2000/svg"
 width="50" height="50" viewBox="0 0 100.000000 100.000000"
 preserveAspectRatio="xMidYMid meet">

<g transform="translate(0.000000,100.000000) scale(0.100000,-0.100000)"
fill="var(--accent-color)" stroke="none">
<path d="M146 864 l-66 -57 2 -361 3 -361 415 0 415 0 3 362 2 362 -65 55 -66
56 -289 0 -288 0 -66 -56z m334 -14 l0 -30 -162 0 -162 0 34 30 c35 29 36 29
163 30 l127 0 0 -30z m330 0 l34 -30 -162 0 -162 0 0 30 0 30 128 0 c126 -1
127 -1 162 -30z m70 -400 l0 -330 -380 0 -380 0 0 330 0 330 380 0 380 0 0
-330z"/>
<path d="M396 684 c-9 -8 -16 -24 -16 -34 0 -39 26 -50 120 -50 94 0 120 11
120 50 0 39 -26 50 -120 50 -67 0 -92 -4 -104 -16z m184 -34 c0 -6 -33 -10
-80 -10 -47 0 -80 4 -80 10 0 6 33 10 80 10 47 0 80 -4 80 -10z"/>
<path d="M585 350 c-28 -29 -28 -30 -7 -30 19 0 22 -6 22 -40 0 -33 3 -40 20
-40 17 0 20 7 20 40 0 34 3 40 22 40 21 0 21 1 -7 30 -16 17 -32 30 -35 30 -3
0 -19 -13 -35 -30z"/>
<path d="M725 350 c-28 -29 -28 -30 -7 -30 19 0 22 -6 22 -40 0 -33 3 -40 20
-40 17 0 20 7 20 40 0 34 3 40 22 40 21 0 21 1 -7 30 -16 17 -32 30 -35 30 -3
0 -19 -13 -35 -30z"/>
<path d="M560 200 c0 -19 7 -20 130 -20 123 0 130 1 130 20 0 19 -7 20 -130
20 -123 0 -130 -1 -130 -20z"/>
</g>
</svg>
