<svg width="50" height="50" viewBox="0 0 40 40" fill="none" xmlns="http://www.w3.org/2000/svg">
<path d="M16.6514 27.5002L15.025 28.2904C11.7235 29.203 10.0727 29.6593 9.18283 28.6988C8.29299 27.7383 8.7534 25.9971 9.67421 22.5147L9.91244 21.6138C10.1741 20.6242 10.3049 20.1294 10.2392 19.6387C10.1734 19.148 9.91839 18.7171 9.40846 17.8551L8.9442 17.0703C7.14972 14.037 6.25247 12.5203 6.85172 11.3136C7.45096 10.1068 9.14983 10.0091 12.5476 9.8137L13.4266 9.76315C14.3921 9.70763 14.8749 9.67986 15.2959 9.45525C15.7169 9.23064 16.0284 8.8346 16.6514 8.04252L17.2187 7.3214C19.4112 4.53406 20.5074 3.14039 21.7676 3.35505C23.0278 3.56971 23.6174 5.25054 24.7965 8.61221L25.1015 9.48191C25.4366 10.4372 25.6041 10.9148 25.9301 11.2667C26.2561 11.6185 26.7036 11.8047 27.5986 12.1772L28.4134 12.5163C31.5629 13.8269 33.1377 14.4822 33.3173 15.8217C33.4705 16.9645 32.5216 17.9595 30.5821 19.6387" stroke="var(--accent-red)" stroke-width="2"/>
<path d="M25.4194 17.815C23.775 15.8475 22.9528 14.8637 22.0076 15.0152C21.0625 15.1667 20.6203 16.3532 19.736 18.7261L19.5072 19.3401C19.2559 20.0144 19.1303 20.3515 18.8858 20.5999C18.6413 20.8483 18.3057 20.9797 17.6344 21.2426L17.0233 21.482C14.6612 22.4071 13.4801 22.8697 13.3454 23.8152C13.2107 24.7607 14.2116 25.5629 16.2133 27.1674L16.7312 27.5825C17.3001 28.0384 17.5845 28.2664 17.7491 28.5785C17.9137 28.8905 17.94 29.2513 17.9924 29.9729L18.0401 30.6299C18.2246 33.1692 18.3169 34.4388 19.1788 34.8717C20.0407 35.3045 21.1014 34.6138 23.2229 33.2325L23.7717 32.8751C24.3746 32.4826 24.676 32.2864 25.0223 32.2308C25.3685 32.1753 25.7203 32.2669 26.424 32.4499L27.0646 32.6166C29.5407 33.2608 30.7788 33.5829 31.4462 32.9049C32.1136 32.2269 31.7683 30.9979 31.0777 28.5397L30.899 27.9037C30.7028 27.2052 30.6046 26.8559 30.654 26.5096C30.7033 26.1632 30.8945 25.859 31.277 25.2505L31.6252 24.6966C32.9711 22.5554 33.644 21.4848 33.1946 20.633C32.7451 19.7811 31.471 19.7122 28.9227 19.5743L28.2634 19.5386C27.5392 19.4994 27.1772 19.4798 26.8614 19.3212C26.5457 19.1627 26.3121 18.8831 25.8448 18.324L25.4194 17.815Z" stroke="var(--accent-red)" stroke-width="2"/>
</svg>
