<svg width="50" height="50" viewBox="0 0 40 40" fill="none" xmlns="http://www.w3.org/2000/svg">
<path d="M3.33333 20.0002C3.33333 12.1434 3.33333 8.21505 5.77411 5.77427C8.21488 3.3335 12.1433 3.3335 20 3.3335C27.8567 3.3335 31.7851 3.3335 34.2259 5.77427C36.6667 8.21505 36.6667 12.1434 36.6667 20.0002C36.6667 27.8569 36.6667 31.7853 34.2259 34.2261C31.7851 36.6668 27.8567 36.6668 20 36.6668C12.1433 36.6668 8.21488 36.6668 5.77411 34.2261C3.33333 31.7853 3.33333 27.8569 3.33333 20.0002Z" stroke="var(--accent-color)" stroke-width="2"/>
<path d="M26.6667 15.8332L13.3333 15.8332M13.3333 15.8332L17.9167 11.6665M13.3333 15.8332L17.9167 19.9998" stroke="var(--accent-color)" stroke-width="2" stroke-linecap="round" stroke-linejoin="round"/>
<path d="M13.3333 24.1667L26.6667 24.1667M26.6667 24.1667L22.0833 20M26.6667 24.1667L22.0833 28.3333" stroke="var(--accent-color)" stroke-width="2" stroke-linecap="round" stroke-linejoin="round"/>
</svg>
