<svg width="50" height="50" viewBox="0 0 41 40" fill="none" xmlns="http://www.w3.org/2000/svg">
<path d="M17.1662 14.6705L16.5772 15.4786L17.1662 14.6705ZM20.25 5.17709L19.5733 5.91332C19.9559 6.26501 20.5441 6.26501 20.9267 5.91332L20.25 5.17709ZM23.3338 14.6705L23.9228 15.4786H23.9228L23.3338 14.6705ZM20.25 16.1268L20.25 17.1268H20.25L20.25 16.1268ZM17.7553 13.8624C16.5977 13.0185 15.3536 11.9859 14.4087 10.8906C13.4398 9.76743 12.9167 8.72904 12.9167 7.8581H10.9167C10.9167 9.46233 11.8318 10.9652 12.8944 12.197C13.981 13.4566 15.3617 14.5926 16.5772 15.4786L17.7553 13.8624ZM12.9167 7.8581C12.9167 6.00039 13.8392 4.88891 14.9961 4.49958C16.1884 4.09833 17.9015 4.37666 19.5733 5.91332L20.9267 4.44086C18.8486 2.5307 16.3951 1.91857 14.3582 2.60404C12.2859 3.30143 10.9167 5.25387 10.9167 7.8581H12.9167ZM23.9228 15.4786C25.1383 14.5926 26.5189 13.4567 27.6056 12.197C28.6682 10.9652 29.5833 9.46233 29.5833 7.85808H27.5833C27.5833 8.72905 27.0601 9.76746 26.0912 10.8906C25.1464 11.9859 23.9023 13.0186 22.7447 13.8624L23.9228 15.4786ZM29.5833 7.85808C29.5833 5.25385 28.2141 3.30143 26.1418 2.60403C24.1049 1.91857 21.6514 2.5307 19.5733 4.44086L20.9267 5.91332C22.5985 4.37666 24.3116 4.09833 25.5039 4.49958C26.6608 4.8889 27.5833 6.00038 27.5833 7.85808H29.5833ZM16.5772 15.4786C17.8503 16.4067 18.7819 17.1268 20.25 17.1268L20.25 15.1268C19.5462 15.1268 19.1458 14.876 17.7553 13.8624L16.5772 15.4786ZM22.7447 13.8624C21.3542 14.8761 20.9538 15.1268 20.25 15.1268L20.25 17.1268C21.7181 17.1268 22.6497 16.4067 23.9228 15.4786L22.7447 13.8624Z" fill="var(--accent-red)"/>
<path d="M8.58334 33.9808H12.3499C14.0347 33.9808 15.7376 34.1563 17.3772 34.4941C20.2776 35.0917 23.3314 35.1641 26.2616 34.6897C27.7063 34.4559 29.1268 34.0983 30.4125 33.4777C31.5731 32.9175 32.9949 32.1278 33.9499 31.2434C34.9035 30.3601 35.8966 28.9146 36.6016 27.7847C37.206 26.8158 36.9137 25.6271 35.9576 24.9052C34.8955 24.1033 33.3195 24.1035 32.2577 24.9056L29.2457 27.1809C28.0784 28.0627 26.8033 28.8744 25.2843 29.1167C25.1017 29.1458 24.9103 29.1724 24.7106 29.1955M24.7106 29.1955C24.6505 29.2025 24.5896 29.2091 24.528 29.2154M24.7106 29.1955C24.9536 29.1434 25.1949 28.9936 25.4213 28.796C26.4933 27.8603 26.5611 26.2835 25.6309 25.2387C25.4151 24.9963 25.1626 24.7941 24.8818 24.6267C20.2196 21.8459 12.9657 23.9638 8.58334 27.0717M24.7106 29.1955C24.6498 29.2085 24.5889 29.2154 24.528 29.2154M24.528 29.2154C23.6558 29.305 22.6353 29.3281 21.503 29.2212" stroke="var(--accent-red)" stroke-width="2" stroke-linecap="round"/>
<rect x="3.58334" y="23.3335" width="5" height="13.3333" rx="1.5" stroke="var(--accent-red)" stroke-width="2"/>
</svg>
