<?xml version="1.0" standalone="no"?>
<!DOCTYPE svg PUBLIC "-//W3C//DTD SVG 20010904//EN"
 "http://www.w3.org/TR/2001/REC-SVG-20010904/DTD/svg10.dtd">
<svg version="1.0" xmlns="http://www.w3.org/2000/svg"
 width="50" height="50" viewBox="0 0 100.000000 100.000000"
 preserveAspectRatio="xMidYMid meet">

<g transform="translate(0.000000,100.000000) scale(0.100000,-0.100000)"
fill="var(--accent-color)" stroke="none">
<path d="M17 983 c-4 -3 -7 -12 -7 -19 0 -10 62 -13 273 -16 231 -3 277 -5
298 -19 17 -12 55 -84 129 -249 l105 -232 52 -34 c73 -46 77 -58 58 -155 -8
-44 -17 -85 -21 -90 -3 -5 -27 -9 -54 -9 -46 0 -49 1 -60 35 -33 99 -173 101
-237 3 l-26 -38 -128 0 c-122 0 -129 -1 -129 -20 0 -19 7 -20 130 -20 125 0
130 -1 130 -21 0 -12 15 -36 34 -55 28 -28 41 -34 79 -34 52 0 102 29 132 77
19 30 24 32 81 33 78 0 97 19 113 111 23 138 12 173 -72 222 -40 24 -47 35
-135 229 -109 239 -122 262 -164 288 -31 19 -51 20 -304 20 -149 0 -274 -3
-277 -7z m707 -774 c37 -29 35 -70 -6 -114 -59 -62 -138 -46 -138 28 0 41 24
75 64 93 42 18 49 17 80 -7z"/>
<path d="M154 785 c-12 -30 7 -35 141 -35 104 0 134 3 138 14 11 29 -17 36
-145 36 -103 0 -130 -3 -134 -15z"/>
<path d="M555 768 c-10 -34 -38 -217 -38 -248 1 -24 9 -41 28 -57 23 -20 37
-23 111 -23 76 0 84 2 84 19 0 25 -19 31 -100 31 -53 0 -69 4 -74 16 -3 9 3
70 14 135 11 66 18 124 15 129 -9 14 -35 12 -40 -2z"/>
<path d="M270 581 c0 -23 19 -31 70 -31 51 0 70 8 70 31 0 17 -8 19 -70 19
-62 0 -70 -2 -70 -19z"/>
<path d="M10 140 c0 -18 7 -20 60 -20 53 0 60 2 60 20 0 18 -7 20 -60 20 -53
0 -60 -2 -60 -20z"/>
</g>
</svg>
