<?xml version="1.0" standalone="no"?>
<!DOCTYPE svg PUBLIC "-//W3C//DTD SVG 20010904//EN"
 "http://www.w3.org/TR/2001/REC-SVG-20010904/DTD/svg10.dtd">
<svg version="1.0" xmlns="http://www.w3.org/2000/svg"
 width="50" height="50" viewBox="0 0 100.000000 100.000000"
 preserveAspectRatio="xMidYMid meet">

<g transform="translate(0.000000,100.000000) scale(0.100000,-0.100000)"
fill="var(--accent-color)" stroke="none">
<path d="M131 906 c-49 -27 -50 -37 -51 -404 0 -372 2 -386 55 -410 41 -19
697 -17 734 2 49 26 51 41 51 406 0 365 -2 380 -51 406 -39 20 -702 20 -738 0z
m729 -46 c19 -19 20 -33 20 -360 0 -327 -1 -341 -20 -360 -19 -19 -33 -20
-360 -20 -327 0 -341 1 -360 20 -19 19 -20 33 -20 360 0 327 1 341 20 360 19
19 33 20 360 20 327 0 341 -1 360 -20z"/>
<path d="M277 769 c-34 -20 -51 -70 -51 -154 0 -118 31 -168 105 -168 70 0
109 59 109 163 0 106 -41 170 -107 170 -21 0 -46 -5 -56 -11z m99 -74 c18 -44
18 -126 -1 -171 -13 -31 -18 -35 -47 -32 -29 3 -35 8 -46 43 -15 44 -11 139 7
174 8 14 21 21 42 21 25 0 33 -6 45 -35z"/>
<path d="M515 578 c-60 -111 -129 -237 -153 -280 l-42 -78 27 0 c26 0 36 15
138 202 61 111 129 237 153 280 l42 78 -27 0 c-26 0 -36 -15 -138 -202z"/>
<path d="M640 551 c-87 -24 -107 -234 -29 -305 27 -24 38 -27 73 -23 46 6 70
30 86 85 22 81 2 194 -41 228 -20 16 -60 23 -89 15z m57 -49 c20 -12 33 -60
33 -117 0 -65 -12 -100 -40 -115 -49 -26 -87 47 -77 149 8 73 44 109 84 83z"/>
</g>
</svg>
