<?xml version="1.0" standalone="no"?>
<!DOCTYPE svg PUBLIC "-//W3C//DTD SVG 20010904//EN"
 "http://www.w3.org/TR/2001/REC-SVG-20010904/DTD/svg10.dtd">
<svg version="1.0" xmlns="http://www.w3.org/2000/svg"
 width="50" height="50" viewBox="0 0 100.000000 100.000000"
 preserveAspectRatio="xMidYMid meet">

<g transform="translate(0.000000,100.000000) scale(0.100000,-0.100000)"
fill="var(--accent-color)" stroke="none">
<path d="M432 969 c-72 -22 -132 -111 -132 -196 l0 -33 -74 0 c-41 0 -77 -4
-80 -9 -9 -15 -87 -711 -81 -721 8 -13 862 -13 870 0 6 10 -72 706 -81 721 -3
5 -38 9 -78 9 l-73 0 -6 55 c-11 104 -79 173 -178 180 -30 3 -69 0 -87 -6z
m156 -56 c44 -33 65 -69 70 -122 l5 -51 -162 0 -161 0 0 34 c0 67 36 125 95
152 40 19 119 12 153 -13z m-288 -233 c0 -11 -6 -29 -12 -40 -17 -26 0 -55 32
-55 32 0 49 29 32 55 -6 11 -12 29 -12 40 0 19 6 20 160 20 154 0 160 -1 160
-20 0 -11 -6 -29 -12 -40 -17 -26 0 -55 32 -55 32 0 49 29 32 55 -6 11 -12 29
-12 40 0 18 7 20 60 20 54 0 60 -2 64 -22 3 -13 19 -149 36 -303 16 -154 32
-292 35 -307 l5 -28 -400 0 -399 0 4 28 c3 15 19 153 35 307 17 154 33 290 36
303 4 20 10 22 64 22 53 0 60 -2 60 -20z"/>
</g>
</svg>
