<svg width="24" height="26" viewBox="0 0 24 26" fill="none" xmlns="http://www.w3.org/2000/svg">
<path d="M16.379 9.16667H7.04571M7.04571 5.76313V5.66667C7.04571 3.08934 9.13505 1 11.7124 1C14.2897 1 16.379 3.08934 16.379 5.66667V5.76313M7.04571 5.76313C7.96355 5.66667 9.13315 5.66667 10.7649 5.66667H12.6598C14.2916 5.66667 15.4612 5.66667 16.379 5.76313M7.04571 5.76313C6.34332 5.83695 5.78837 5.96726 5.28656 6.1973C4.26656 6.6649 3.40305 7.41676 2.79958 8.36274C2.11475 9.43627 1.91661 10.8629 1.52034 13.716C1.01147 17.3799 0.757036 19.2118 1.31649 20.6346C1.80763 21.8837 2.71447 22.9252 3.88409 23.5835C5.21639 24.3333 7.06591 24.3333 10.7649 24.3333H12.6598C16.3589 24.3333 18.2084 24.3333 19.5407 23.5835C20.7103 22.9252 21.6171 21.8837 22.1083 20.6346C22.6677 19.2118 22.4133 17.3799 21.9044 13.716C21.5081 10.8629 21.31 9.43627 20.6252 8.36274C20.0217 7.41676 19.1582 6.6649 18.1382 6.1973C17.6364 5.96726 17.0814 5.83695 16.379 5.76313" stroke="white" stroke-width="2" stroke-linecap="round"/>
</svg>
