<svg version="1.0" xmlns="http://www.w3.org/2000/svg"
viewBox="0 0 512.000000 512.000000"
 preserveAspectRatio="xMidYMid meet">

<g transform="translate(0.000000,512.000000) scale(0.100000,-0.100000)"
fill="black" stroke="none">
<path d="M2488 4830 c-121 -21 -223 -77 -310 -166 -37 -38 -275 -450 -1073
-1854 -590 -1038 -1033 -1828 -1043 -1860 -27 -87 -23 -267 8 -345 66 -170
194 -290 365 -342 57 -17 153 -18 2145 -18 l2085 0 71 26 c169 62 287 182 345
349 32 95 32 239 -2 335 -15 44 -401 734 -1039 1859 -1076 1896 -1055 1862
-1170 1936 -104 67 -268 101 -382 80z m218 -1071 c72 -19 139 -87 169 -174 34
-100 48 -219 40 -349 -18 -294 -105 -1205 -120 -1256 -35 -115 -89 -160 -190
-160 -59 0 -85 9 -123 44 -33 29 -48 61 -72 152 -26 99 -91 1015 -93 1319 -2
186 -1 203 20 247 67 144 216 215 369 177z m28 -2229 c64 -31 142 -118 161
-182 44 -150 -15 -296 -149 -366 -44 -23 -63 -27 -136 -27 -130 0 -214 47
-278 155 -24 40 -27 55 -27 140 0 87 3 100 30 149 78 141 254 198 399 131z"/>
</g>
</svg>
