<svg version="1.0" xmlns="http://www.w3.org/2000/svg"
 viewBox="0 0 512.000000 512.000000"
 preserveAspectRatio="xMidYMid meet">

<g transform="translate(0.000000,512.000000) scale(0.100000,-0.100000)"
stroke="none">
<path d="M214 4870 c-12 -5 -29 -19 -38 -32 -15 -20 -16 -223 -16 -2280 l0
-2257 24 -28 24 -28 2352 0 2352 0 24 28 24 28 0 2259 0 2259 -24 28 -24 28
-2339 2 c-1304 1 -2347 -2 -2359 -7z m4586 -1602 l0 -1453 -599 599 c-595 594
-599 599 -633 592 -27 -5 -144 -117 -645 -619 l-613 -612 -343 343 c-318 318
-345 342 -377 342 -33 0 -74 -39 -652 -617 l-618 -618 0 1748 0 1747 2240 0
2240 0 0 -1452z m-608 -1065 l608 -608 0 -597 0 -598 -2240 0 -2240 0 0 302 0
303 632 632 633 633 340 -339 c215 -215 350 -342 366 -346 16 -4 38 -1 55 9
16 8 299 285 629 615 330 331 602 601 605 601 3 0 278 -273 612 -607z"/>
<path d="M2129 4185 c-194 -49 -356 -180 -445 -360 -93 -189 -97 -393 -10
-580 70 -149 172 -253 321 -326 109 -53 204 -72 330 -66 179 10 305 66 436
197 87 87 153 193 178 285 95 357 -88 710 -431 832 -60 21 -95 26 -198 29 -85
2 -143 -1 -181 -11z m290 -160 c171 -45 310 -177 362 -344 26 -84 28 -215 4
-297 -75 -262 -359 -427 -618 -359 -296 77 -465 386 -367 669 52 151 183 277
338 327 70 22 206 24 281 4z"/>
</g>
</svg>
