<svg viewBox="0 0 15 14" fill="none" xmlns="http://www.w3.org/2000/svg">
<path d="M7.41667 11.5C7.83088 11.5 8.16667 11.1642 8.16667 10.75C8.16667 10.3358 7.83088 10 7.41667 10V10.75V11.5ZM0.75 10C0.335787 10 5.96046e-08 10.3358 0 10.75C-5.96046e-08 11.1642 0.335786 11.5 0.75 11.5L0.75 10.75L0.75 10ZM7.41667 1.66667C7.00245 1.66667 6.66667 2.00245 6.66667 2.41667C6.66667 2.83088 7.00245 3.16667 7.41667 3.16667V2.41667V1.66667ZM14.0833 3.16667C14.4975 3.16667 14.8333 2.83088 14.8333 2.41667C14.8333 2.00245 14.4975 1.66667 14.0833 1.66667V2.41667V3.16667ZM7.41667 10.75V10L0.75 10L0.75 10.75L0.75 11.5H7.41667V10.75ZM7.41667 2.41667V3.16667L14.0833 3.16667V2.41667V1.66667L7.41667 1.66667V2.41667ZM0.75 2.41667H0C0 3.75135 1.08198 4.83333 2.41667 4.83333V4.08333V3.33333C1.91041 3.33333 1.5 2.92293 1.5 2.41667H0.75ZM2.41667 4.08333V4.83333C3.75135 4.83333 4.83333 3.75135 4.83333 2.41667H4.08333H3.33333C3.33333 2.92293 2.92293 3.33333 2.41667 3.33333V4.08333ZM4.08333 2.41667H4.83333C4.83333 1.08198 3.75135 0 2.41667 0V0.75V1.5C2.92293 1.5 3.33333 1.91041 3.33333 2.41667H4.08333ZM2.41667 0.75V0C1.08198 0 0 1.08198 0 2.41667H0.75H1.5C1.5 1.91041 1.91041 1.5 2.41667 1.5V0.75ZM14.0833 10.75L14.8333 10.75C14.8333 9.41531 13.7514 8.33333 12.4167 8.33333V9.08333V9.83333C12.9229 9.83333 13.3333 10.2437 13.3333 10.75H14.0833ZM12.4167 9.08333V8.33333C11.082 8.33333 10 9.41531 10 10.75H10.75L11.5 10.75C11.5 10.2437 11.9104 9.83333 12.4167 9.83333V9.08333ZM10.75 10.75H10C10 12.0847 11.082 13.1667 12.4167 13.1667V12.4167V11.6667C11.9104 11.6667 11.5 11.2563 11.5 10.75L10.75 10.75ZM12.4167 12.4167V13.1667C13.7514 13.1667 14.8333 12.0847 14.8333 10.75L14.0833 10.75H13.3333C13.3333 11.2563 12.9229 11.6667 12.4167 11.6667V12.4167Z" fill="#FAFAFA"/>
</svg>
