<svg viewBox="0 0 30 31" fill="none" xmlns="http://www.w3.org/2000/svg">
<path d="M30.0008 15.5626C30.0008 14.4505 29.9006 13.3863 29.7146 12.363H15.3203V18.2257L23.6103 18.2275C23.274 20.1781 22.1919 21.841 20.534 22.9496V26.7532H25.4686C28.3499 24.1043 30.0008 20.1888 30.0008 15.5626Z" fill="#4285F4"/>
<path d="M20.5339 22.9496C19.1603 23.8699 17.3914 24.4082 15.3221 24.4082C11.3247 24.4082 7.93356 21.7326 6.71913 18.1262H1.62891V22.0489C4.15077 27.0197 9.334 30.4307 15.3221 30.4307C19.4608 30.4307 22.9378 29.0787 25.4686 26.7514L20.5339 22.9496Z" fill="#34A853"/>
<path d="M6.24027 15.2163C6.24027 14.2036 6.41018 13.2248 6.7196 12.3045V8.38184H1.62937C0.586643 10.4373 0 12.7575 0 15.2163C0 17.675 0.588432 19.9952 1.62937 22.0507L6.7196 18.1281C6.41018 17.2078 6.24027 16.2289 6.24027 15.2163Z" fill="#FABB05"/>
<path d="M15.3221 6.02255C17.581 6.02255 19.6039 6.79536 21.2011 8.30543L25.5741 3.96529C22.9181 1.5083 19.4554 0 15.3221 0C9.33579 0 4.15077 3.411 1.62891 8.38183L6.71913 12.3045C7.93356 8.69806 11.3247 6.02255 15.3221 6.02255Z" fill="#E94235"/>
</svg>
