<?xml version="1.0" standalone="no"?>
<!DOCTYPE svg PUBLIC "-//W3C//DTD SVG 20010904//EN"
 "http://www.w3.org/TR/2001/REC-SVG-20010904/DTD/svg10.dtd">
<svg version="1.0" xmlns="http://www.w3.org/2000/svg"
 viewBox="0 0 512.000000 512.000000"
 preserveAspectRatio="xMidYMid meet">

<g transform="translate(0.000000,512.000000) scale(0.100000,-0.100000)"
fill="rgb(255 169 214)" stroke="none">
<path d="M2298 4625 c-113 -29 -163 -65 -593 -430 -251 -213 -440 -366 -470
-381 -48 -23 -58 -24 -275 -24 -124 0 -254 -5 -290 -11 -183 -29 -349 -183
-389 -360 -14 -60 -14 -1658 0 -1718 29 -128 137 -261 260 -319 86 -41 164
-52 384 -52 l180 0 -302 -302 c-255 -256 -303 -309 -312 -343 -21 -81 31 -173
110 -193 23 -6 46 -9 53 -7 6 2 25 6 41 10 23 5 489 465 1968 1943 1066 1065
1943 1946 1949 1957 79 142 -75 296 -217 217 -11 -6 -342 -333 -735 -726 -393
-394 -718 -716 -722 -716 -5 0 -8 231 -8 513 0 563 -1 575 -61 688 -36 67
-122 157 -185 194 -110 65 -271 90 -386 60z m197 -324 c47 -22 89 -64 104
-104 7 -19 11 -248 11 -695 l0 -667 -618 -618 -618 -618 -65 22 c-59 21 -86
24 -334 29 -249 5 -273 7 -305 26 -19 11 -45 35 -57 54 l-23 33 0 797 0 797
23 33 c12 19 38 43 57 54 32 19 57 21 310 27 386 8 364 -2 760 335 135 114
319 270 409 347 90 77 178 145 195 153 44 19 104 17 151 -5z"/>
<path d="M4360 3721 c-75 -39 -106 -124 -72 -200 137 -307 164 -383 202 -572
79 -387 35 -805 -123 -1171 -89 -208 -208 -392 -354 -550 -82 -88 -103 -123
-103 -173 0 -82 59 -150 141 -161 71 -9 118 23 232 156 284 330 460 704 538
1147 19 107 23 165 23 353 1 284 -21 445 -95 685 -55 177 -155 401 -202 454
-47 51 -126 65 -187 32z"/>
<path d="M3712 3074 c-41 -21 -69 -56 -82 -103 -8 -30 -5 -60 15 -147 33 -145
40 -257 26 -383 -29 -246 -115 -437 -288 -637 -76 -88 -89 -122 -72 -188 20
-74 76 -116 156 -116 61 0 94 20 165 101 318 364 435 826 327 1291 -31 133
-78 188 -166 195 -32 2 -59 -2 -81 -13z"/>
<path d="M2698 2060 c-20 -11 -47 -36 -60 -57 l-23 -38 -5 -520 c-4 -369 -8
-526 -17 -540 -32 -55 -113 -105 -170 -105 -68 0 -102 22 -289 181 -104 89
-199 165 -212 170 -13 5 -44 9 -70 9 -115 0 -189 -127 -134 -228 28 -53 394
-358 477 -398 291 -140 627 13 719 325 14 47 16 129 16 581 l0 527 -22 33
c-34 50 -71 72 -125 77 -34 2 -58 -2 -85 -17z"/>
</g>
</svg>
