<?xml version="1.0" standalone="no"?>
<!DOCTYPE svg PUBLIC "-//W3C//DTD SVG 20010904//EN"
 "http://www.w3.org/TR/2001/REC-SVG-20010904/DTD/svg10.dtd">
<svg version="1.0" xmlns="http://www.w3.org/2000/svg"
viewBox="0 0 512.000000 512.000000"
 preserveAspectRatio="xMidYMid meet">

<g transform="translate(0.000000,512.000000) scale(0.100000,-0.100000)"
fill="rgb(255 169 214)" stroke="none">
<path d="M2574 4416 c-34 -8 -84 -26 -113 -40 -28 -15 -271 -202 -539 -416
l-487 -390 -225 0 c-169 0 -241 -4 -285 -15 -210 -54 -386 -235 -431 -444 -20
-96 -20 -1006 0 -1102 45 -209 221 -390 431 -444 44 -11 116 -15 285 -15 l225
0 492 -393 c341 -273 510 -402 550 -420 153 -68 316 -54 460 40 86 57 145 135
185 245 l23 63 0 1475 0 1475 -23 64 c-54 150 -156 252 -299 300 -81 27 -175
33 -249 17z m181 -336 c17 -10 39 -34 50 -52 20 -33 20 -53 23 -1446 1 -954
-1 -1426 -8 -1452 -22 -83 -113 -134 -192 -108 -26 8 -201 142 -509 388 l-469
375 0 775 0 775 469 375 c258 206 484 381 503 387 40 15 92 8 133 -17z m-1425
-1520 l0 -690 -162 0 c-150 0 -167 2 -214 24 -60 28 -117 91 -138 154 -24 68
-24 956 0 1024 21 63 78 126 138 154 47 22 64 24 214 24 l162 0 0 -690z"/>
<path d="M4057 3696 c-77 -28 -112 -81 -105 -162 4 -46 12 -62 51 -111 155
-192 243 -376 294 -614 27 -130 25 -382 -6 -518 -49 -222 -142 -416 -276 -576
-66 -79 -76 -99 -77 -154 0 -65 29 -113 86 -140 87 -43 151 -19 237 86 172
209 292 462 350 733 31 144 34 464 5 615 -53 283 -194 580 -366 768 -47 51
-69 67 -104 76 -53 13 -42 13 -89 -3z"/>
<path d="M3574 3279 c-45 -13 -100 -78 -109 -127 -8 -50 9 -91 72 -174 200
-261 189 -614 -26 -877 -67 -82 -80 -121 -61 -184 24 -80 114 -131 192 -108
50 15 87 48 155 139 211 280 262 649 134 977 -53 138 -161 299 -226 336 -39
23 -92 30 -131 18z"/>
</g>
</svg>
