<svg width="19" height="25" viewBox="0 0 19 25" fill="none" xmlns="http://www.w3.org/2000/svg">
<path d="M13.8333 5.66667H12.8333C12.8333 7.69171 11.1917 9.33333 9.16667 9.33333V10.3333V11.3333C12.2963 11.3333 14.8333 8.79628 14.8333 5.66667H13.8333ZM9.16667 10.3333V9.33333C7.14162 9.33333 5.5 7.69171 5.5 5.66667H4.5H3.5C3.5 8.79628 6.03705 11.3333 9.16667 11.3333V10.3333ZM4.5 5.66667H5.5C5.5 3.64162 7.14162 2 9.16667 2V1V0C6.03705 0 3.5 2.53705 3.5 5.66667H4.5ZM9.16667 1V2C11.1917 2 12.8333 3.64162 12.8333 5.66667H13.8333H14.8333C14.8333 2.53705 12.2963 0 9.16667 0V1ZM5.66667 13.8333V14.8333H12.6667V13.8333V12.8333H5.66667V13.8333ZM12.6667 23.1667V22.1667H5.66667V23.1667V24.1667H12.6667V23.1667ZM5.66667 23.1667V22.1667C3.64162 22.1667 2 20.525 2 18.5H1H0C0 21.6296 2.53705 24.1667 5.66667 24.1667V23.1667ZM17.3333 18.5H16.3333C16.3333 20.525 14.6917 22.1667 12.6667 22.1667V23.1667V24.1667C15.7963 24.1667 18.3333 21.6296 18.3333 18.5H17.3333ZM12.6667 13.8333V14.8333C14.6917 14.8333 16.3333 16.475 16.3333 18.5H17.3333H18.3333C18.3333 15.3704 15.7963 12.8333 12.6667 12.8333V13.8333ZM5.66667 13.8333V12.8333C2.53705 12.8333 0 15.3704 0 18.5H1H2C2 16.475 3.64162 14.8333 5.66667 14.8333V13.8333Z" fill="white"/>
</svg>
