<?xml version="1.0" standalone="no"?>
<!DOCTYPE svg PUBLIC "-//W3C//DTD SVG 20010904//EN"
 "http://www.w3.org/TR/2001/REC-SVG-20010904/DTD/svg10.dtd">
<svg version="1.0" xmlns="http://www.w3.org/2000/svg"
width="20" height="20" viewBox="0 0 512.000000 512.000000"
 preserveAspectRatio="xMidYMid meet">

<g transform="translate(0.000000,512.000000) scale(0.100000,-0.100000)"
fill="var(--accent-color)" stroke="none">
<path d="M1100 4589 c-177 -46 -319 -188 -365 -364 -13 -52 -15 -255 -15
-1665 0 -1766 -4 -1659 61 -1780 37 -69 118 -153 191 -197 29 -18 89 -42 132
-53 78 -20 108 -20 1456 -20 1341 0 1379 1 1454 20 43 11 102 33 131 50 70 40
156 128 194 199 65 122 61 14 61 1781 0 1767 4 1659 -61 1781 -38 71 -124 159
-194 199 -29 17 -88 39 -131 50 -75 19 -112 20 -1458 19 -1337 0 -1383 -1
-1456 -20z m2904 -209 c66 -25 125 -81 163 -152 l28 -53 0 -1615 0 -1615 -28
-53 c-38 -71 -97 -127 -163 -152 -54 -20 -69 -20 -1444 -20 -1363 0 -1390 0
-1443 20 -64 24 -128 83 -165 153 l-27 52 0 1615 0 1615 27 52 c37 69 100 129
163 153 49 18 89 19 1442 19 1378 1 1393 1 1447 -19z"/>
<path d="M1569 3551 c-38 -39 -40 -97 -5 -138 24 -28 24 -28 170 -31 l146 -3
30 29 c45 45 44 103 -1 145 -29 27 -30 27 -170 27 l-141 0 -29 -29z"/>
<path d="M2197 3569 c-23 -13 -47 -62 -47 -95 0 -16 12 -38 34 -60 l34 -34
657 2 657 3 24 28 c35 41 33 99 -5 138 l-29 29 -654 0 c-425 -1 -659 -4 -671
-11z"/>
<path d="M1569 2731 c-48 -49 -38 -125 21 -156 34 -17 252 -21 294 -5 61 23
78 111 30 161 l-28 29 -144 0 -144 0 -29 -29z"/>
<path d="M2197 2749 c-23 -13 -47 -62 -47 -95 0 -16 12 -38 34 -60 l34 -34
641 0 c688 0 684 0 711 49 20 39 12 91 -19 122 l-29 29 -654 0 c-425 -1 -659
-4 -671 -11z"/>
<path d="M1613 1943 c-35 -7 -73 -59 -73 -99 0 -85 38 -104 202 -104 104 0
128 3 155 20 34 20 53 66 45 107 -6 32 -47 69 -83 77 -34 7 -210 6 -246 -1z"/>
<path d="M2224 1939 c-42 -12 -65 -40 -71 -87 -4 -33 -1 -44 25 -73 l30 -34
644 -3 c470 -2 650 1 671 9 64 27 78 106 28 161 l-29 33 -634 2 c-356 1 -646
-2 -664 -8z"/>
</g>
</svg>
