<svg width="15" height="31" viewBox="0 0 15 31" fill="none" xmlns="http://www.w3.org/2000/svg">
<path fill-rule="evenodd" clip-rule="evenodd" d="M3.72121 0.00633864C3.62697 0.0143093 3.45129 0.0422388 3.1841 0.091728C3.12588 0.102513 2.88573 0.169631 2.78127 0.204307C2.47705 0.305315 2.04828 0.513993 1.81343 0.675341C1.39089 0.965659 1.12711 1.2106 0.814667 1.60281C0.714518 1.72852 0.536004 2.0092 0.436467 2.19747C0.286183 2.48169 0.149403 2.85913 0.076206 3.19158C0.0110009 3.48776 0.00113996 3.57874 4.42572e-05 3.89446C-0.00135223 4.29258 0.0300143 4.52524 0.13474 4.89375C0.232118 5.23637 0.553717 5.86598 0.771945 6.14126C0.807695 6.18634 0.86493 6.25946 0.899154 6.30375C0.978872 6.40693 1.32684 6.75892 1.39016 6.80042C1.41675 6.81784 1.45411 6.8453 1.47318 6.86142C1.49226 6.87756 1.54647 6.91551 1.59365 6.94577C1.6411 6.97621 1.68861 7.01604 1.7 7.03492C1.72238 7.07204 1.79641 7.32121 1.8624 7.58154C1.93669 7.87463 1.96054 7.95765 2.0654 8.28829C2.21509 8.76021 2.29555 9.07342 2.38964 9.55049C2.45116 9.86241 2.45499 9.88645 2.51249 10.3239C2.55737 10.6654 2.57633 10.8482 2.59271 11.0974C2.59931 11.1978 2.61182 11.3863 2.62053 11.5163C2.62922 11.6463 2.64121 11.8928 2.64718 12.0642C2.68624 13.1854 2.69097 13.4349 2.69483 14.5778C2.69918 15.8646 2.69364 16.3185 2.66266 17.2097C2.65957 17.2983 2.65248 17.5569 2.6469 17.7844C2.62889 18.5177 2.60493 19.366 2.59926 19.4709C2.59622 19.527 2.59064 19.8412 2.58687 20.1691C2.57776 20.9599 2.59926 21.8126 2.6417 22.3444C2.65066 22.4567 2.66257 22.6065 2.66818 22.6774C2.67379 22.7483 2.6857 22.8789 2.69465 22.9675C2.75473 23.5625 2.77344 23.7079 2.85218 24.1921C2.92137 24.6175 3.0299 25.1171 3.12523 25.4489C3.26498 25.9355 3.33206 26.1449 3.41762 26.362C3.44091 26.4211 3.47352 26.5057 3.49008 26.55C3.50665 26.5943 3.53442 26.662 3.55179 26.7004C3.56916 26.7388 3.59441 26.7992 3.60792 26.8347C3.65256 26.9519 3.87905 27.4332 3.97696 27.6189C4.17892 28.0018 4.28622 28.1793 4.48122 28.4532C4.50928 28.4926 4.54866 28.5482 4.56872 28.5768C4.58877 28.6053 4.6183 28.6431 4.63434 28.6608C4.65037 28.6786 4.68882 28.7269 4.71976 28.7683C4.77763 28.8456 5.01683 29.1131 5.11233 29.2073C5.20053 29.2943 5.50694 29.5698 5.53628 29.5884C5.55125 29.5979 5.60024 29.6372 5.64515 29.6757C5.69005 29.7143 5.76408 29.7724 5.80966 29.8049C5.85522 29.8374 5.91125 29.8785 5.93414 29.8962C6.02746 29.9684 6.42032 30.2253 6.55405 30.3015C6.58234 30.3176 6.62752 30.3442 6.65445 30.3606C6.79897 30.4485 6.86673 30.4856 7.00832 30.5544C7.25902 30.6763 7.53505 30.78 7.67262 30.804C7.71008 30.8106 7.77129 30.8254 7.80865 30.8369C7.95417 30.8819 8.0801 30.8934 8.42629 30.8936C8.81483 30.8938 8.94642 30.8827 9.29673 30.82C9.70564 30.7467 10.0083 30.6632 10.1848 30.5748C10.225 30.5546 10.2699 30.5345 10.2847 30.5301C10.3379 30.514 10.6149 30.3598 10.7324 30.2808C10.9234 30.1524 11.4287 29.6714 11.662 29.3959C11.7191 29.3285 11.8909 29.1099 12.0074 28.9563C12.2394 28.6504 12.4693 28.2116 12.7586 27.5222C13.0619 26.7996 13.3152 26.0243 13.5221 25.1857C13.593 24.898 13.7247 24.3013 13.7708 24.0578C13.7793 24.0135 13.7961 23.9313 13.8084 23.8752C13.8207 23.8191 13.8523 23.6552 13.8788 23.5111C13.9053 23.367 13.9288 23.246 13.9311 23.2423C13.9334 23.2385 13.9576 23.1051 13.9847 22.9457C14.0119 22.7864 14.0436 22.6076 14.0552 22.5485C14.0668 22.4895 14.0839 22.3831 14.0933 22.3122C14.1027 22.2413 14.1169 22.1422 14.125 22.092C14.156 21.8991 14.2047 21.5778 14.2162 21.4904C14.2229 21.4402 14.2326 21.3677 14.2378 21.3293C14.243 21.2909 14.2528 21.2111 14.2594 21.1521C14.266 21.093 14.2807 20.9745 14.2919 20.8889C14.3032 20.8032 14.3196 20.6679 14.3285 20.5881C14.3513 20.3826 14.3967 19.9587 14.4101 19.8254C14.4164 19.7634 14.4264 19.6746 14.4325 19.628C14.4385 19.5815 14.4502 19.4655 14.4584 19.3702C14.4667 19.2749 14.4833 19.0979 14.4953 18.9768C14.5073 18.8556 14.5221 18.6961 14.5282 18.6223C14.5343 18.5484 14.544 18.459 14.5497 18.4235C14.5555 18.3881 14.5698 18.2407 14.5817 18.0959C14.5935 17.9512 14.6102 17.753 14.6189 17.6555C14.6275 17.558 14.6398 17.4106 14.6462 17.3278C14.6525 17.2451 14.6671 17.0687 14.6786 16.9357C14.7303 16.3366 14.7726 15.7034 14.8069 15.0129C14.8802 13.5376 14.8264 12.0552 14.6561 10.861C14.6045 10.4988 14.5852 10.3719 14.5719 10.3078C14.5664 10.2812 14.5472 10.187 14.5293 10.0983C14.5003 9.95438 14.4801 9.8646 14.4088 9.56124C14.3008 9.10195 14.0676 8.38448 13.8642 7.88545C13.8353 7.81456 13.7994 7.73238 13.7844 7.70284C13.7695 7.6733 13.7535 7.63704 13.7491 7.62227C13.7312 7.56337 13.5581 7.20408 13.4463 6.99385C13.3323 6.77955 13.3157 6.74968 13.2209 6.58898C13.1815 6.52216 13.1367 6.44552 13.1215 6.41866C13.0609 6.31196 12.8452 5.97875 12.7489 5.84301C12.2713 5.17 11.733 4.62485 10.9416 4.01259C10.6908 3.81856 10.1735 3.46137 9.9511 3.3287C9.90121 3.29893 9.76695 3.21802 9.65276 3.1489C9.45072 3.02661 9.26132 2.91809 9.10854 2.83707C9.06725 2.81517 9.00338 2.77578 8.9666 2.74954C8.78461 2.61967 8.63869 2.5376 8.35647 2.40636C8.26223 2.36254 7.87081 2.19375 7.77327 2.15487C7.73363 2.13908 7.67969 2.08047 7.6477 2.01848C7.46768 1.66956 7.04769 1.23798 6.53629 0.876392C6.41938 0.793741 6.28775 0.704302 6.283 0.704302C6.28147 0.704302 6.21806 0.666726 6.14208 0.620814C5.84386 0.440592 5.46119 0.271402 5.08427 0.153142C4.87124 0.0863037 4.81044 0.0716083 4.58596 0.0327109C4.44524 0.00832613 4.3874 0.00428697 4.12942 0.000795763C3.96694 -0.00139564 3.78325 0.00109645 3.72121 0.00633864Z" fill="#FFA9D6"/>
</svg>
