<svg width="27" height="27" viewBox="0 0 27 27" fill="none" xmlns="http://www.w3.org/2000/svg">
<path d="M21.5405 20.1263C21.15 19.7358 20.5168 19.7358 20.1263 20.1263C19.7358 20.5168 19.7358 21.15 20.1263 21.5405L20.8334 20.8334L21.5405 20.1263ZM24.7928 26.2071C25.1834 26.5977 25.8165 26.5977 26.2071 26.2072C26.5976 25.8166 26.5976 25.1835 26.2071 24.7929L25.5 25.5L24.7928 26.2071ZM20.8334 20.8334L20.1263 21.5405L24.7928 26.2071L25.5 25.5L26.2071 24.7929L21.5405 20.1263L20.8334 20.8334ZM11.5 22V21C6.2533 21 2 16.7467 2 11.5H1H0C0 17.8513 5.14873 23 11.5 23V22ZM22 11.5H21C21 16.7467 16.7467 21 11.5 21V22V23C17.8513 23 23 17.8513 23 11.5H22ZM11.5 1V2C16.7467 2 21 6.25329 21 11.5H22H23C23 5.14873 17.8513 0 11.5 0V1ZM11.5 1V0C5.14873 0 0 5.14873 0 11.5H1H2C2 6.25329 6.2533 2 11.5 2V1Z" fill="white"/>
</svg>
